# xmcd
#
# Track frame offsets: 
#        150
#        12132
#        25918
#        40504
#        56231
#        67337
#        81956
#        95324
#        108380
#        119072
#        133263
#        146073
#        160053
#
# Disc length: 2319 seconds
#
# Revision: 0
# Processed by: cddbd v1.5.2PL0 Copyright (c) Steve Scherf et al.
# Submitted via: ExactAudioCopyFreeDBPlugin 1.0
#
DISCID=b8090d0d
DTITLE=The Lucky Stars - Go To Town
DYEAR=2014
DGENRE=Retro
TTITLE0=Go To Town
TTITLE1=$100 and No sense
TTITLE2=Whose Hat Is That?
TTITLE3=Rye Whiskey Baby
TTITLE4=Feelin' It
TTITLE5=The Way You Walk
TTITLE6=Glycerin Tears
TTITLE7=Right By Me
TTITLE8=Watch Your Step
TTITLE9=Lie, Lie Again
TTITLE10=If I Were Me
TTITLE11=I'll Go The Extra Mile
TTITLE12=The Last Call Blues
EXTD=
EXTT0=
EXTT1=
EXTT2=
EXTT3=
EXTT4=
EXTT5=
EXTT6=
EXTT7=
EXTT8=
EXTT9=
EXTT10=
EXTT11=
EXTT12=
PLAYORDER=
